<?xml version="1.0" encoding="UTF-8" standalone="no"?>
<!-- Uploaded to: SVG Repo, www.svgrepo.com, Generator: SVG Repo Mixer Tools -->

<svg
   width="512"
   height="512"
   viewBox="0 0 15.36 15.36"
   fill="none"
   version="1.1"
   id="svg1"
   sodipodi:docname="heart.svg"
   inkscape:version="1.3.2 (091e20e, 2023-11-25, custom)"
   xmlns:inkscape="http://www.inkscape.org/namespaces/inkscape"
   xmlns:sodipodi="http://sodipodi.sourceforge.net/DTD/sodipodi-0.dtd"
   xmlns="http://www.w3.org/2000/svg"
   xmlns:svg="http://www.w3.org/2000/svg"
   xmlns:rdf="http://www.w3.org/1999/02/22-rdf-syntax-ns#"
   xmlns:cc="http://creativecommons.org/ns#">
  <defs
     id="defs1" />
  <sodipodi:namedview
     id="namedview1"
     pagecolor="#ffffff"
     bordercolor="#666666"
     borderopacity="1.0"
     inkscape:showpageshadow="2"
     inkscape:pageopacity="0.0"
     inkscape:pagecheckerboard="true"
     inkscape:deskcolor="#d1d1d1"
     inkscape:export-bgcolor="#ffffff00"
     inkscape:zoom="1.5220473"
     inkscape:cx="268.717"
     inkscape:cy="269.70252"
     inkscape:window-width="1920"
     inkscape:window-height="1057"
     inkscape:window-x="-8"
     inkscape:window-y="-8"
     inkscape:window-maximized="1"
     inkscape:current-layer="svg1"
     inkscape:document-units="px" />
  <path
     d="M 7.6799912,14.47731 C 7.5055177,14.477134 7.338153,14.407713 7.2148455,14.28423 L 1.2732766,8.3250999 C 0.46924154,7.5047761 0.01888399,6.401942 0.01888399,5.2533481 c 0,-1.1486114 0.45035755,-2.2514455 1.25439261,-3.0717167 0.8146982,-0.8146193 1.9196123,-1.27225245 3.0717167,-1.27225245 1.1520956,0 2.2570009,0.45763315 3.0717079,1.27225245 l 0.26329,0.2281847 0.2457374,-0.2457374 C 8.3285623,1.7568568 8.8083644,1.4338439 9.3372263,1.2138651 9.8660881,0.99387749 10.433478,0.88132101 11.006222,0.882734 c 0.572217,-0.002563 1.139168,0.10861591 1.66803,0.3270764 0.528774,0.2184693 1.008927,0.5398498 1.412463,0.945492 0.804,0.8202712 1.254401,1.9231053 1.254401,3.0717167 0,1.1485939 -0.450401,2.251428 -1.254401,3.0717518 L 8.1451369,14.257901 c -0.058801,0.06591 -0.1303286,0.119271 -0.210281,0.157009 -0.079865,0.03765 -0.1665748,0.05889 -0.2548647,0.0624 z M 4.3537696,2.1904077 C 3.9551749,2.1875028 3.5599502,2.2635673 3.1908966,2.4141955 2.8218518,2.5648325 2.4862887,2.7870492 2.2035679,3.0680411 1.6338698,3.6403897 1.3140426,4.4150766 1.3140426,5.222631 c 0,0.8075455 0.3198272,1.5822325 0.8895253,2.1546249 L 7.6799912,12.888793 13.147647,7.3948086 c 0.283125,-0.2828612 0.507799,-0.6187315 0.661033,-0.9884784 0.153235,-0.3696592 0.232134,-0.765937 0.232134,-1.1661466 0,-0.4002096 -0.0789,-0.7964873 -0.232134,-1.1661904 C 13.655446,3.7042989 13.430772,3.3684287 13.147647,3.0855938 12.867155,2.8040753 12.533216,2.5814285 12.165488,2.4307125 11.797759,2.2800053 11.403614,2.2042743 11.006222,2.2079604 10.607601,2.2050554 10.212402,2.2811199 9.8433574,2.4317481 9.4743126,2.5823851 9.1387056,2.8046019 8.8560199,3.0855938 l -0.710883,0.710883 c -0.1255893,0.1191387 -0.2920764,0.185558 -0.4651457,0.185558 -0.1730693,0 -0.3395563,-0.066419 -0.4651457,-0.185558 L 6.5039625,3.0855938 C 6.222681,2.8014336 5.8877849,2.5759784 5.5186699,2.4223048 5.1495549,2.2686312 4.753593,2.1898022 4.3537696,2.1904077 Z"
     fill="#000000"
     id="path1"
     style="display:inline;fill:#f9f9f9;stroke-width:0.877633" />
  <path
     style="display:inline;fill:none;stroke-width:0.0244637"
     d="M 5.3301002,10.658859 C 2.251703,7.559686 1.9634953,7.2607207 1.798753,6.9957022 1.5014058,6.5173643 1.3575477,6.0465065 1.3369498,5.4841872 1.3160487,4.9135948 1.41754,4.4435105 1.6651308,3.9641292 2.4162617,2.5098011 4.228577,1.9191196 5.6937442,2.6510976 6.0507036,2.8294298 6.2219809,2.9651188 6.7737533,3.506701 7.3689198,4.090876 7.4097503,4.1177266 7.701316,4.1166718 7.9458495,4.1157872 8.0129519,4.0699026 8.5692321,3.5231894 9.0899871,3.0113902 9.2979222,2.8470425 9.6418114,2.6754419 10.052569,2.4704749 10.416005,2.3808538 10.907812,2.3632546 c 1.450204,-0.051895 2.666137,0.8645537 3.038438,2.2900731 0.08484,0.3248456 0.104806,0.8686169 0.04502,1.226151 -0.08057,0.481852 -0.285377,0.9575194 -0.576614,1.3392012 -0.07927,0.1038895 -1.402311,1.4524111 -2.940089,2.9967141 l -2.7959598,2.807825 z"
     id="path2" />
  <path
     style="display:inline;fill:#ffffff;stroke-width:0.0275471"
     d="M 4.6134711,10.595551 C 2.925564,8.8262504 1.4784191,7.2929385 1.3975931,7.1881918 0.07300126,5.471578 0.61599159,2.8909386 2.5096675,1.9028989 2.9943733,1.65 3.4231982,1.5473457 3.994136,1.5475394 4.4519772,1.5476937 4.7348096,1.5941904 5.1083202,1.7307031 5.6889217,1.9429045 6.0083153,2.1777196 6.7475484,2.9358476 7.3615837,3.5655773 7.4095689,3.5970685 7.7246729,3.5770959 7.8274392,3.570582 7.9558489,3.5418666 8.0162777,3.5118862 8.0797604,3.4803911 8.3578502,3.219292 8.6911338,2.8782629 9.4149325,2.137643 9.6755343,1.9509538 10.27923,1.7405855 10.688346,1.5980219 11.018613,1.5498693 11.471541,1.566748 c 0.207855,0.00775 0.467052,0.034354 0.575993,0.059128 1.309317,0.2977562 2.311958,1.3546772 2.579969,2.7196434 0.205232,1.045233 -0.08748,2.1859743 -0.767122,2.9895586 -0.07846,0.092767 -1.500603,1.5881285 -3.160321,3.323026 l -3.0176676,3.154357 z"
     id="path3" />
  <path
     style="fill:#ffffff;stroke-width:0.0244637"
     d="M 7.4439376,14.417919 C 7.3364334,14.375139 6.9480248,13.995125 4.2369419,11.280228 2.5403697,9.5812697 1.0837114,8.1058244 0.99992387,8.0014607 -0.20118117,6.5053987 -0.29726693,4.4171717 0.76157528,2.821442 1.3416518,1.9472368 2.2508544,1.303525 3.2608721,1.05195 3.7005891,0.9424254 3.8496241,0.92545719 4.3615181,0.92663709 4.8934239,0.92786313 5.1050875,0.95566124 5.5405191,1.0814771 6.2813098,1.2955248 6.769956,1.5865234 7.4915557,2.243358 L 7.6761839,2.4114153 7.9651926,2.1332716 C 8.1241471,1.9802926 8.3581163,1.7811484 8.485124,1.6907289 8.9656368,1.3486421 9.5930481,1.079979 10.196098,0.9580757 c 0.246314,-0.0497912 0.349844,-0.0567306 0.831764,-0.0557518 0.47186,9.5837e-4 0.585678,0.008759 0.79735,0.0546447 0.551305,0.1195122 0.983124,0.2833747 1.398786,0.5307973 1.143242,0.6805135 1.896057,1.8365425 2.072504,3.1825507 0.15411,1.1756231 -0.20921,2.4367848 -0.959995,3.3323479 -0.08226,0.098124 -1.52927,1.5634671 -3.215576,3.2563195 -2.1591216,2.167501 -3.0979602,3.094211 -3.1740226,3.133015 -0.1511077,0.07709 -0.3487842,0.08728 -0.5029708,0.02592 z M 10.489661,10.068798 C 12.076643,8.4738988 13.344647,7.1800209 13.425841,7.0727042 14.016347,6.2922154 14.195389,5.2483116 13.899758,4.3095427 13.66427,3.5617617 13.092267,2.8801874 12.410058,2.5344792 11.414541,2.0300033 10.238733,2.0947712 9.3122712,2.7051167 9.1512,2.8112286 8.9436994,2.9937964 8.5805334,3.3489289 8.3017314,3.6215636 8.0390022,3.8625303 7.9966907,3.8844104 7.7896571,3.9914718 7.4975687,3.9819341 7.336148,3.8628415 7.2946898,3.8322548 7.0487838,3.6033676 6.7896899,3.3542034 6.2663538,2.8509245 6.2340337,2.8225151 6.0250459,2.68208 5.3114118,2.2025337 4.3440946,2.0556636 3.4957976,2.2980578 3.2239533,2.3757352 2.7439643,2.6127635 2.5314517,2.7742716 1.2430296,3.7534629 0.93106616,5.5382453 1.8120866,6.8898498 c 0.073022,0.1120254 0.2581879,0.3361136 0.4114805,0.4979738 0.3883267,0.4100313 5.4368747,5.4873914 5.4566836,5.4878234 0.00888,1.85e-4 1.2731115,-1.262888 2.8094103,-2.806849 z"
     id="path4" />
  <metadata
     id="metadata1">
    <rdf:RDF>
      <cc:Work
         rdf:about="">
        <cc:license
           rdf:resource="MIT" />
      </cc:Work>
    </rdf:RDF>
  </metadata>
</svg>
